# xmcd
#
# Track frame offsets:
#	183
#	13085
#	28023
#	46805
#	62993
#	78640
#	92638
#	107215
#	122510
#	142515
#	157595
#	171563
#	185943
#	203105
#	216925
#	232405
#
# Disc length: 3260 seconds
#
# Revision: 3
# Processed by: cddbd v1.5PL3 Copyright (c) Steve Scherf et al.
# Submitted via: audiograbber 1.83.01
#
DISCID=e10cba10
DTITLE=Gemischte - Das Grosse Trucker Festival CD2
DYEAR=1900
DGENRE=Country
TTITLE0=Tom Astor - Noch 100 Kilometer
TTITLE1=Jonny Hill - Das fremde Gesicht
TTITLE2=Western Union - Unter allen Männern
TTITLE3=Tom Astor - Geistertruck 2
TTITLE4=Nashville Music Company - Ich kann dich nicht weinen seh`n
TTITLE5=Tom Astor - Junge halt doch mal die Luft an
TTITLE6=Tom Astor - Ich bin ein Mann von der Strasse
TTITLE7=Pete Carson - Big Trucker
TTITLE8=Gunter Gabriel - Wer ist der Mann hinter`m Mann hinter`m Lenkrad
TTITLE9=Tom Astor - Bei dir brennt noch Licht
TTITLE10=Helt Oncale - Im Herzen ist er Country (He`s County)
TTITLE11=Tom Astor - Ich bin ein einfacher Mann (Truck-Drivin` Man)
TTITLE12=New Mavericks - Unter Freunden 
TTITLE13=Rugy und Howard - Long Vehicle Cowboy
TTITLE14=Saddlebag - Halt mich fest
TTITLE15=Tom Astor - Nürburgringlied  (Take Me Home Country Roads)
EXTD=
EXTT0=
EXTT1=
EXTT2=
EXTT3=
EXTT4=
EXTT5=
EXTT6=
EXTT7=
EXTT8=
EXTT9=
EXTT10=
EXTT11=
EXTT12=
EXTT13=
EXTT14=
EXTT15=
PLAYORDER=
